<svg id="svg" version="1.1" width="400" height="400" viewBox="0 0 400 400" xmlns="http://www.w3.org/2000/svg" xmlns:xlink="http://www.w3.org/1999/xlink" ><g id="svgg"><path id="path0" d="M115.400 124.462 C 88.098 126.637,70.884 137.379,57.717 160.458 C 40.430 190.756,51.568 238.488,80.452 257.891 C 93.673 266.772,121.328 273.028,157.400 275.297 C 168.514 275.996,231.599 275.990,242.695 275.288 C 272.814 273.385,300.340 267.612,314.672 260.193 C 331.226 251.623,344.502 232.945,348.446 212.677 C 354.127 183.481,347.981 162.078,328.200 142.177 C 311.217 125.090,293.945 121.719,242.200 125.390 C 207.979 127.819,192.618 128.015,163.400 126.397 C 159.660 126.190,154.710 125.925,152.400 125.808 C 147.846 125.578,138.205 125.007,128.438 124.390 C 121.661 123.961,121.693 123.961,115.400 124.462 M142.827 149.834 C 164.363 156.123,174.283 194.765,161.200 221.400 C 145.866 252.616,113.688 243.327,106.735 205.677 C 100.967 174.447,120.996 143.459,142.827 149.834 M269.240 149.927 C 286.192 154.628,297.474 180.126,293.460 204.664 C 287.229 242.749,254.292 253.128,238.891 221.861 C 222.349 188.277,241.745 142.303,269.240 149.927 " stroke="none" fill="#141b24" fill-rule="evenodd"></path><path id="path1" d="M46.000 0.665 C 41.848 1.329,36.671 2.613,35.000 3.394 C 33.900 3.908,32.082 4.677,30.960 5.103 C 29.838 5.529,27.948 6.506,26.760 7.273 C 25.572 8.041,24.030 9.013,23.333 9.434 C 19.267 11.890,12.348 18.870,9.291 23.600 C 8.509 24.810,7.741 25.890,7.585 26.000 C 7.301 26.200,4.800 31.384,4.800 31.771 C 4.800 31.884,4.357 32.946,3.815 34.131 C 2.545 36.906,1.356 41.356,0.803 45.400 C 0.491 47.683,0.399 92.391,0.483 201.400 L 0.600 354.200 1.537 358.171 C 2.053 360.355,2.966 363.235,3.567 364.571 C 4.168 365.907,4.910 367.630,5.217 368.400 C 6.192 370.847,9.705 376.559,11.670 378.891 C 17.846 386.221,25.936 392.307,32.800 394.790 C 34.230 395.307,35.580 395.863,35.800 396.024 C 36.590 396.605,40.670 397.644,44.400 398.214 C 50.124 399.089,349.476 399.089,355.200 398.214 C 358.930 397.644,363.010 396.605,363.800 396.024 C 364.020 395.863,365.370 395.304,366.800 394.783 C 369.015 393.976,371.130 392.869,375.400 390.284 C 385.453 384.199,394.616 371.319,397.943 358.600 L 398.989 354.600 399.115 201.400 C 399.207 90.279,399.119 47.376,398.796 45.200 C 398.244 41.481,397.022 36.844,396.009 34.619 C 395.587 33.693,394.889 32.050,394.458 30.968 C 391.774 24.230,382.202 12.726,376.875 9.838 C 376.504 9.636,374.945 8.658,373.410 7.663 C 371.876 6.669,369.716 5.516,368.610 5.103 C 367.505 4.689,365.883 3.983,365.007 3.533 C 364.131 3.084,361.521 2.242,359.207 1.663 L 355.000 0.610 201.000 0.557 C 116.300 0.529,46.550 0.577,46.000 0.665 M290.400 124.378 C 311.835 126.580,327.422 136.670,340.507 156.818 C 361.807 189.611,349.056 242.259,315.481 260.152 C 302.348 267.151,275.535 273.276,249.600 275.203 C 236.314 276.190,186.026 276.605,164.800 275.902 C 130.175 274.756,98.919 268.800,84.228 260.549 C 50.997 241.885,38.408 189.455,59.370 157.023 C 72.695 136.406,86.834 127.552,111.200 124.563 C 118.049 123.723,125.970 123.903,157.400 125.615 C 187.228 127.239,206.858 127.366,226.000 126.058 C 239.045 125.167,257.166 124.083,262.400 123.880 C 268.508 123.643,286.335 123.960,290.400 124.378 M131.317 150.214 C 109.579 156.070,99.010 194.181,111.798 220.600 C 124.217 246.258,148.992 246.331,161.181 220.745 C 176.805 187.946,157.808 143.078,131.317 150.214 M257.600 150.171 C 234.059 156.699,225.084 201.384,242.175 226.967 C 258.496 251.398,287.093 239.474,292.796 205.860 C 298.258 173.666,279.561 144.081,257.600 150.171 " stroke="none" fill="#4bd4b4" fill-rule="evenodd"></path><path id="path2" d="M270.100 123.897 C 271.805 123.972,274.595 123.972,276.300 123.897 C 278.005 123.822,276.610 123.761,273.200 123.761 C 269.790 123.761,268.395 123.822,270.100 123.897 M128.305 124.283 C 128.802 124.379,129.522 124.375,129.905 124.275 C 130.287 124.175,129.880 124.096,129.000 124.101 C 128.120 124.105,127.807 124.187,128.305 124.283 M256.300 124.282 C 256.795 124.378,257.605 124.378,258.100 124.282 C 258.595 124.187,258.190 124.109,257.200 124.109 C 256.210 124.109,255.805 124.187,256.300 124.282 M135.700 124.676 C 136.085 124.776,136.715 124.776,137.100 124.676 C 137.485 124.575,137.170 124.493,136.400 124.493 C 135.630 124.493,135.315 124.575,135.700 124.676 M248.900 124.676 C 249.285 124.776,249.915 124.776,250.300 124.676 C 250.685 124.575,250.370 124.493,249.600 124.493 C 248.830 124.493,248.515 124.575,248.900 124.676 M142.905 125.087 C 143.514 125.179,144.414 125.177,144.905 125.082 C 145.397 124.987,144.900 124.911,143.800 124.914 C 142.700 124.917,142.297 124.995,142.905 125.087 M242.300 125.082 C 242.795 125.178,243.605 125.178,244.100 125.082 C 244.595 124.987,244.190 124.909,243.200 124.909 C 242.210 124.909,241.805 124.987,242.300 125.082 M150.505 125.487 C 151.114 125.579,152.014 125.577,152.505 125.482 C 152.997 125.387,152.500 125.311,151.400 125.314 C 150.300 125.317,149.897 125.395,150.505 125.487 M236.300 125.482 C 236.795 125.578,237.605 125.578,238.100 125.482 C 238.595 125.387,238.190 125.309,237.200 125.309 C 236.210 125.309,235.805 125.387,236.300 125.482 M157.507 125.890 C 158.226 125.979,159.306 125.977,159.907 125.886 C 160.508 125.795,159.920 125.722,158.600 125.724 C 157.280 125.726,156.788 125.801,157.507 125.890 M230.505 125.887 C 231.114 125.979,232.014 125.977,232.505 125.882 C 232.997 125.787,232.500 125.711,231.400 125.714 C 230.300 125.717,229.897 125.795,230.505 125.887 M165.507 126.290 C 166.226 126.379,167.306 126.377,167.907 126.286 C 168.508 126.195,167.920 126.122,166.600 126.124 C 165.280 126.126,164.788 126.201,165.507 126.290 M223.705 126.287 C 224.314 126.379,225.214 126.377,225.705 126.282 C 226.197 126.187,225.700 126.111,224.600 126.114 C 223.500 126.117,223.097 126.195,223.705 126.287 M174.105 126.687 C 174.714 126.779,175.614 126.777,176.105 126.682 C 176.597 126.587,176.100 126.511,175.000 126.514 C 173.900 126.517,173.497 126.595,174.105 126.687 M217.105 126.683 C 217.602 126.779,218.322 126.775,218.705 126.675 C 219.087 126.575,218.680 126.496,217.800 126.501 C 216.920 126.505,216.607 126.587,217.105 126.683 M184.700 127.095 C 185.855 127.176,187.745 127.176,188.900 127.095 C 190.055 127.014,189.110 126.948,186.800 126.948 C 184.490 126.948,183.545 127.014,184.700 127.095 M207.511 127.093 C 208.451 127.178,209.891 127.177,210.711 127.091 C 211.530 127.005,210.760 126.936,209.000 126.937 C 207.240 126.939,206.570 127.009,207.511 127.093 M73.978 139.500 L 72.600 141.000 74.100 139.622 C 75.496 138.338,75.784 138.000,75.478 138.000 C 75.412 138.000,74.737 138.675,73.978 139.500 M325.600 139.400 C 326.346 140.170,327.047 140.800,327.157 140.800 C 327.267 140.800,326.746 140.170,326.000 139.400 C 325.254 138.630,324.553 138.000,324.443 138.000 C 324.333 138.000,324.854 138.630,325.600 139.400 M69.785 143.700 L 67.800 145.800 69.900 143.815 C 71.055 142.723,72.000 141.778,72.000 141.715 C 72.000 141.417,71.629 141.749,69.785 143.700 M329.800 143.600 C 330.883 144.700,331.860 145.600,331.970 145.600 C 332.080 145.600,331.283 144.700,330.200 143.600 C 329.117 142.500,328.140 141.600,328.030 141.600 C 327.920 141.600,328.717 142.500,329.800 143.600 M135.491 149.489 C 136.201 149.577,137.461 149.579,138.291 149.492 C 139.121 149.405,138.540 149.333,137.000 149.331 C 135.460 149.329,134.781 149.400,135.491 149.489 M261.900 149.489 C 262.615 149.578,263.785 149.578,264.500 149.489 C 265.215 149.401,264.630 149.328,263.200 149.328 C 261.770 149.328,261.185 149.401,261.900 149.489 M119.978 156.700 L 118.600 158.200 120.100 156.822 C 120.925 156.063,121.600 155.388,121.600 155.322 C 121.600 155.016,121.262 155.304,119.978 156.700 M49.293 186.400 C 49.293 187.170,49.375 187.485,49.476 187.100 C 49.576 186.715,49.576 186.085,49.476 185.700 C 49.375 185.315,49.293 185.630,49.293 186.400 M350.493 186.400 C 350.493 187.170,350.575 187.485,350.676 187.100 C 350.776 186.715,350.776 186.085,350.676 185.700 C 350.575 185.315,350.493 185.630,350.493 186.400 M166.493 188.400 C 166.493 189.170,166.575 189.485,166.676 189.100 C 166.776 188.715,166.776 188.085,166.676 187.700 C 166.575 187.315,166.493 187.630,166.493 188.400 M233.293 189.200 C 233.293 189.970,233.375 190.285,233.476 189.900 C 233.576 189.515,233.576 188.885,233.476 188.500 C 233.375 188.115,233.293 188.430,233.293 189.200 M293.758 194.200 C 293.758 197.280,293.821 198.487,293.897 196.882 C 293.973 195.278,293.973 192.758,293.896 191.282 C 293.819 189.807,293.757 191.120,293.758 194.200 M106.153 194.600 C 106.153 197.240,106.218 198.268,106.297 196.884 C 106.375 195.501,106.374 193.341,106.295 192.084 C 106.216 190.828,106.152 191.960,106.153 194.600 M49.309 198.000 C 49.309 198.990,49.387 199.395,49.482 198.900 C 49.578 198.405,49.578 197.595,49.482 197.100 C 49.387 196.605,49.309 197.010,49.309 198.000 M350.514 198.200 C 350.517 199.300,350.595 199.703,350.687 199.095 C 350.779 198.486,350.777 197.586,350.682 197.095 C 350.587 196.603,350.511 197.100,350.514 198.200 M233.301 200.200 C 233.305 201.080,233.387 201.393,233.483 200.895 C 233.579 200.398,233.575 199.678,233.475 199.295 C 233.375 198.913,233.296 199.320,233.301 200.200 M166.493 200.400 C 166.493 201.170,166.575 201.485,166.676 201.100 C 166.776 200.715,166.776 200.085,166.676 199.700 C 166.575 199.315,166.493 199.630,166.493 200.400 M151.978 233.500 L 150.600 235.000 152.100 233.622 C 153.496 232.338,153.784 232.000,153.478 232.000 C 153.412 232.000,152.737 232.675,151.978 233.500 M68.800 248.125 C 68.800 248.194,69.385 248.779,70.100 249.425 L 71.400 250.600 70.225 249.300 C 69.130 248.088,68.800 247.816,68.800 248.125 M148.305 275.083 C 148.802 275.179,149.522 275.175,149.905 275.075 C 150.287 274.975,149.880 274.896,149.000 274.901 C 148.120 274.905,147.807 274.987,148.305 275.083 M250.500 275.076 C 250.885 275.176,251.515 275.176,251.900 275.076 C 252.285 274.975,251.970 274.893,251.200 274.893 C 250.430 274.893,250.115 274.975,250.500 275.076 M154.305 275.483 C 154.802 275.579,155.522 275.575,155.905 275.475 C 156.287 275.375,155.880 275.296,155.000 275.301 C 154.120 275.305,153.807 275.387,154.305 275.483 M244.305 275.483 C 244.802 275.579,245.522 275.575,245.905 275.475 C 246.287 275.375,245.880 275.296,245.000 275.301 C 244.120 275.305,243.807 275.387,244.305 275.483 M162.900 275.887 C 163.505 275.978,164.495 275.978,165.100 275.887 C 165.705 275.795,165.210 275.720,164.000 275.720 C 162.790 275.720,162.295 275.795,162.900 275.887 M234.900 275.887 C 235.505 275.978,236.495 275.978,237.100 275.887 C 237.705 275.795,237.210 275.720,236.000 275.720 C 234.790 275.720,234.295 275.795,234.900 275.887 M177.100 276.298 C 178.915 276.372,181.885 276.372,183.700 276.298 C 185.515 276.223,184.030 276.163,180.400 276.163 C 176.770 276.163,175.285 276.223,177.100 276.298 M216.300 276.298 C 218.115 276.372,221.085 276.372,222.900 276.298 C 224.715 276.223,223.230 276.163,219.600 276.163 C 215.970 276.163,214.485 276.223,216.300 276.298 " stroke="none" fill="#318376" fill-rule="evenodd"></path><path id="path3" d="M131.905 124.683 C 132.402 124.779,133.122 124.775,133.505 124.675 C 133.887 124.575,133.480 124.496,132.600 124.501 C 131.720 124.505,131.407 124.587,131.905 124.683 M252.305 124.683 C 252.802 124.779,253.522 124.775,253.905 124.675 C 254.287 124.575,253.880 124.496,253.000 124.501 C 252.120 124.505,251.807 124.587,252.305 124.683 M139.300 125.076 C 139.685 125.176,140.315 125.176,140.700 125.076 C 141.085 124.975,140.770 124.893,140.000 124.893 C 139.230 124.893,138.915 124.975,139.300 125.076 M145.905 125.483 C 146.402 125.579,147.122 125.575,147.505 125.475 C 147.887 125.375,147.480 125.296,146.600 125.301 C 145.720 125.305,145.407 125.387,145.905 125.483 M152.900 125.887 C 153.505 125.978,154.495 125.978,155.100 125.887 C 155.705 125.795,155.210 125.720,154.000 125.720 C 152.790 125.720,152.295 125.795,152.900 125.887 M234.505 125.887 C 235.114 125.979,236.014 125.977,236.505 125.882 C 236.997 125.787,236.500 125.711,235.400 125.714 C 234.300 125.717,233.897 125.795,234.505 125.887 M161.105 126.283 C 161.602 126.379,162.322 126.375,162.705 126.275 C 163.087 126.175,162.680 126.096,161.800 126.101 C 160.920 126.105,160.607 126.187,161.105 126.283 M228.100 126.276 C 228.485 126.376,229.115 126.376,229.500 126.276 C 229.885 126.175,229.570 126.093,228.800 126.093 C 228.030 126.093,227.715 126.175,228.100 126.276 M168.300 126.682 C 168.795 126.778,169.605 126.778,170.100 126.682 C 170.595 126.587,170.190 126.509,169.200 126.509 C 168.210 126.509,167.805 126.587,168.300 126.682 M221.305 126.687 C 221.914 126.779,222.814 126.777,223.305 126.682 C 223.797 126.587,223.300 126.511,222.200 126.514 C 221.100 126.517,220.697 126.595,221.305 126.687 M178.105 127.087 C 178.714 127.179,179.614 127.177,180.105 127.082 C 180.597 126.987,180.100 126.911,179.000 126.914 C 177.900 126.917,177.497 126.995,178.105 127.087 M213.900 127.082 C 214.395 127.178,215.205 127.178,215.700 127.082 C 216.195 126.987,215.790 126.909,214.800 126.909 C 213.810 126.909,213.405 126.987,213.900 127.082 M191.900 127.489 C 192.615 127.578,193.785 127.578,194.500 127.489 C 195.215 127.401,194.630 127.328,193.200 127.328 C 191.770 127.328,191.185 127.401,191.900 127.489 M203.305 127.487 C 203.914 127.579,204.814 127.577,205.305 127.482 C 205.797 127.387,205.300 127.311,204.200 127.314 C 203.100 127.317,202.697 127.395,203.305 127.487 M49.328 191.600 C 49.328 193.030,49.401 193.615,49.489 192.900 C 49.578 192.185,49.578 191.015,49.489 190.300 C 49.401 189.585,49.328 190.170,49.328 191.600 M350.528 191.600 C 350.528 193.030,350.601 193.615,350.689 192.900 C 350.778 192.185,350.778 191.015,350.689 190.300 C 350.601 189.585,350.528 190.170,350.528 191.600 M166.954 194.400 C 166.954 197.150,167.018 198.275,167.096 196.900 C 167.174 195.525,167.174 193.275,167.096 191.900 C 167.018 190.525,166.954 191.650,166.954 194.400 M232.954 194.800 C 232.954 197.550,233.018 198.675,233.096 197.300 C 233.174 195.925,233.174 193.675,233.096 192.300 C 233.018 190.925,232.954 192.050,232.954 194.800 M294.134 194.400 C 294.134 196.050,294.205 196.725,294.291 195.900 C 294.378 195.075,294.378 193.725,294.291 192.900 C 294.205 192.075,294.134 192.750,294.134 194.400 M105.734 194.800 C 105.734 196.450,105.805 197.125,105.891 196.300 C 105.978 195.475,105.978 194.125,105.891 193.300 C 105.805 192.475,105.734 193.150,105.734 194.800 M119.600 232.600 C 120.795 233.810,121.863 234.800,121.973 234.800 C 122.083 234.800,121.195 233.810,120.000 232.600 C 118.805 231.390,117.737 230.400,117.627 230.400 C 117.517 230.400,118.405 231.390,119.600 232.600 M279.986 232.700 L 277.800 235.000 280.100 232.814 C 282.237 230.782,282.583 230.400,282.286 230.400 C 282.224 230.400,281.189 231.435,279.986 232.700 M153.381 232.500 L 151.800 234.200 153.500 232.619 C 155.081 231.148,155.384 230.800,155.081 230.800 C 155.016 230.800,154.251 231.565,153.381 232.500 M245.200 231.725 C 245.200 231.794,245.785 232.379,246.500 233.025 L 247.800 234.200 246.625 232.900 C 245.530 231.688,245.200 231.416,245.200 231.725 M135.700 240.287 C 136.305 240.378,137.295 240.378,137.900 240.287 C 138.505 240.195,138.010 240.120,136.800 240.120 C 135.590 240.120,135.095 240.195,135.700 240.287 M261.907 240.290 C 262.626 240.379,263.706 240.377,264.307 240.286 C 264.908 240.195,264.320 240.122,263.000 240.124 C 261.680 240.126,261.188 240.201,261.907 240.290 M328.587 250.100 L 326.200 252.600 328.700 250.213 C 330.075 248.899,331.200 247.774,331.200 247.713 C 331.200 247.417,330.805 247.778,328.587 250.100 M142.100 274.276 C 142.485 274.376,143.115 274.376,143.500 274.276 C 143.885 274.175,143.570 274.093,142.800 274.093 C 142.030 274.093,141.715 274.175,142.100 274.276 M157.507 275.490 C 158.226 275.579,159.306 275.577,159.907 275.486 C 160.508 275.395,159.920 275.322,158.600 275.324 C 157.280 275.326,156.788 275.401,157.507 275.490 M240.307 275.490 C 241.026 275.579,242.106 275.577,242.707 275.486 C 243.308 275.395,242.720 275.322,241.400 275.324 C 240.080 275.326,239.588 275.401,240.307 275.490 M168.900 275.876 C 169.285 275.976,169.915 275.976,170.300 275.876 C 170.685 275.775,170.370 275.693,169.600 275.693 C 168.830 275.693,168.515 275.775,168.900 275.876 M229.700 275.876 C 230.085 275.976,230.715 275.976,231.100 275.876 C 231.485 275.775,231.170 275.693,230.400 275.693 C 229.630 275.693,229.315 275.775,229.700 275.876 M193.500 276.299 C 197.075 276.366,202.925 276.366,206.500 276.299 C 210.075 276.233,207.150 276.179,200.000 276.179 C 192.850 276.179,189.925 276.233,193.500 276.299 " stroke="none" fill="#26605c" fill-rule="evenodd"></path><path id="path4" d="M197.312 127.495 C 198.364 127.577,199.984 127.576,200.912 127.492 C 201.840 127.408,200.980 127.341,199.000 127.342 C 197.020 127.343,196.260 127.412,197.312 127.495 M350.493 195.200 C 350.493 195.970,350.575 196.285,350.676 195.900 C 350.776 195.515,350.776 194.885,350.676 194.500 C 350.575 194.115,350.493 194.430,350.493 195.200 " stroke="none" fill="#2c6c64" fill-rule="evenodd"></path></g></svg>